# xmcd CD database file
#
# Track frame offsets:
#	150
#	17213
#	31478
#	41072
#	52849
#	58972
#	68211
#	88570
#	128254
#	153669
#	165780
#	177571
#	187989
#	205740
#	249042
#	262120
#	277024
#	290530
#	307790
#	338020
#
# Disc length: 4713 seconds
#
# Revision: 0
# Processed by: cddbd v1.5.2PL0 Copyright (c) Steve Scherf et al.
# Submitted via: CDex 1.51
#
DISCID=12126714
DTITLE=comp - KXLU 88.9 FM LA Live Comp 9
DYEAR=2009
DGENRE=Jazz
TTITLE0=mad gregs - holy ghost girl games
TTITLE1=kinski - you can't push a witch around
TTITLE2=sbach - track 5
TTITLE3=die princess die - jack
TTITLE4=attractive and popular - rang rang
TTITLE5=dos - make her me
TTITLE6=daedalus - excerpt from his monome mashable mix-up
TTITLE7=italic indian - waxed hill
TTITLE8=kwashi and his african beats - gahun
TTITLE9=hepcat - nigel
TTITLE10=the monolators - you look good on a train
TTITLE11=devon williams - forthcomings
TTITLE12=exitmusic - the hours
TTITLE13=dj frane - let's get down wot moneky business
TTITLE14=voicesvoices - tritwice
TTITLE15=lucky dragons - excerpt
TTITLE16=anni rossi - wheelpusher
TTITLE17=golden hits - babay cumulus navigation theme
TTITLE18=points of friction - froovy buns
TTITLE19=daniel martin moore - every color and kind
EXTD=YEAR: 2009
EXTT0=
EXTT1=
EXTT2=
EXTT3=
EXTT4=
EXTT5=
EXTT6=
EXTT7=
EXTT8=
EXTT9=
EXTT10=
EXTT11=
EXTT12=
EXTT13=
EXTT14=
EXTT15=
EXTT16=
EXTT17=
EXTT18=
EXTT19=
PLAYORDER=
